<?xml version="1.0" encoding="utf-8"?>
<svg xmlns="http://www.w3.org/2000/svg" viewBox="0 0 644.4 124.2">
  <path d="M123.7 51.3l-14.1-14.1-8.9 8.9 14.1 14.1 8.9-8.9zM78.1 23.5l4 4L82 5.6l-22-.2 4 4-36.7 36.7 14.1 14.1 36.7-36.7zM60 9.4L51.1.5l-14 14.1 8.9 8.9L60 9.4zM23.3 46.1l4-4-21.9.2-.2 21.9 4-4L46 97l14-14.1-36.7-36.8zM9.2 64.2L.3 73.1l14.1 14.1 8.9-8.9L9.2 64.2zM46 101l-4-4 .2 21.9 21.9.2-4-4 36.7-36.8-14.1-14.1L46 101zm18.1 14l8.9 8.9 14-14.1-8.9-8.9-14 14.1zm36.7-36.7l-4 4 21.9-.2.2-21.9-4 4-36.8-36.7-14 14 36.7 36.8zm542.8 34.2V97h-3.4v6.8c-.8.3-1.7.4-2.5.4-1.6 0-2.5-.7-2.5-2.2v-5h-3.3v5c0 1.5.5 2.7 1.4 3.6.9.9 2.3 1.4 3.9 1.4.7 0 1.7-.1 3-.4v6h3.4v-.1zm-23.4 0l7.2-15.5h-3.6l-3.8 8.3-4-8.3h-3.6l6 11.9-1.7 3.6h3.5zm-18.6 0l7.2-15.5h-3.6l-3.8 8.3-4-8.3h-3.6l6 11.9-1.7 3.6h3.5zm-14.2-8.2c1.7-.6 2.5-1.8 2.5-3.4 0-1.3-.6-2.4-1.7-3.2-1-.7-2.3-1.1-3.8-1.1s-2.8.4-3.9 1.3-1.7 2-1.7 3.4h3.5c0-1.2.7-1.9 2-1.9.6 0 1.1.2 1.5.5s.6.8.6 1.3c0 .6-.3 1.1-.8 1.5-.5.3-1.1.5-1.9.5h-1.4v2.4c.6 0 1.1-.1 1.4-.1.1 0 .2 0 .3.1.8 0 1.5.2 2 .6.5.4.8.9.8 1.6 0 .7-.2 1.2-.7 1.6-.4.4-1 .6-1.8.6-.7 0-1.3-.2-1.8-.5-.5-.4-.7-.9-.8-1.5h-3.5c0 1.5.7 2.6 1.9 3.5 1.1.9 2.5 1.3 4.2 1.3 1.5 0 2.9-.4 4.1-1.3 1.3-.9 1.9-2.1 1.9-3.4 0-1.8-1-3.1-2.9-3.8zm-29.4 8.2h3.4V97H558v6.2h-6.4V97h-3.4v15.5h3.4V106h6.4v6.5zm-19.9 0h3.4V97h-2.9l-7.6 10.2V97h-3.4v15.5h2.9l7.6-10.3v10.3zm-.7-17.3c.7-.7 1.1-1.6 1.1-2.6h-2.3c0 1.2-.5 1.7-1.6 1.7-.5 0-.9-.2-1.2-.5-.3-.3-.4-.7-.4-1.2h-2.2c0 1 .4 1.8 1.1 2.5.7.7 1.6 1.1 2.7 1.1 1.1.1 2-.2 2.8-1zm-20 17.3h3.4V97h-2.9l-7.6 10.2V97h-3.4v15.5h2.9l7.6-10.3v10.3zm-16.9-7.7c.6-.8.9-1.9.9-3 0-1.2-.3-2.1-1-2.9a5.5 5.5 0 0 0-2.9-1.6c-.7-.2-1.6-.2-2.6-.2h-5.2v15.5h3.4V107h2.3c.9 0 1.6-.2 2.3-.3a7.3 7.3 0 0 0 2.8-1.9zM498 102c0 1.5-1.1 2.2-3.2 2.2H493v-4.4h1.9c2.1 0 3.1.7 3.1 2.2zm-14.2 5.8c0-1.8-.9-3-2.8-3.6 1.3-.6 1.9-1.7 1.9-3.1 0-1.4-.5-2.5-1.7-3.2-1-.6-2.3-.9-3.9-.9h-5.1v15.5h5.2c4.3 0 6.4-1.6 6.4-4.7zm-4.3-6.4c0 .5-.1.8-.3 1.1-.4.5-1.2.7-2.3.7h-1.2v-3.5h1.5c1.5.1 2.3.6 2.3 1.7zm.9 6.4c0 1.3-.9 1.9-2.7 1.9h-2v-4h2.1c1.7 0 2.6.7 2.6 2.1zm-16.6 2.7c1.7-1.5 2.5-3.5 2.5-5.8s-.8-4.2-2.5-5.7a9.3 9.3 0 0 0-6.4-2.3c-1.8 0-3.5.4-4.9 1.2-1.4.8-2.5 2-3.2 3.5h3.9c1-1.3 2.4-1.9 4.2-1.9 1.3 0 2.5.4 3.4 1.1 1 .7 1.6 1.6 1.8 2.8h-7v2.6h7a4.1 4.1 0 0 1-1.8 2.8c-1 .7-2.1 1.1-3.5 1.1-1.8 0-3.1-.6-4.1-1.9h-3.9a8.3 8.3 0 0 0 3.2 3.5c1.4.8 3 1.3 4.8 1.3 2.6 0 4.8-.8 6.5-2.3zm-21.6 0c1.7-1.5 2.5-3.5 2.5-5.8s-.8-4.2-2.5-5.7a9.3 9.3 0 0 0-6.4-2.3c-1.8 0-3.5.4-4.9 1.2-1.4.8-2.5 2-3.2 3.5h3.9c1-1.3 2.4-1.9 4.2-1.9 1.3 0 2.5.4 3.4 1.1 1 .7 1.6 1.6 1.8 2.8h-7v2.6h7a4.1 4.1 0 0 1-1.8 2.8c-1 .7-2.1 1.1-3.5 1.1-1.8 0-3.1-.6-4.1-1.9h-3.9a8.3 8.3 0 0 0 3.2 3.5c1.4.8 3 1.3 4.8 1.3 2.6 0 4.8-.8 6.5-2.3zm-22.6-10.7h3.4V97h-10.3v2.8h3.4v12.7h3.4V99.8h.1zm-26.7 12.7h3.4V97h-3.4v6.2h-6.4V97h-3.4v15.5h3.4V106h6.4v6.5zm-19.8 0h3.4V97h-3.4v15.5zm-1.3-4.8c0-2.5-1.3-4-3.8-4.6-.8-.2-2-.3-3.7-.3V97h-3.4v15.5h4.6c1.9 0 3.4-.4 4.5-1.1 1.1-.8 1.8-2 1.8-3.7zm-3.4 0c0 1.3-1 2-3 2h-1.2v-4.2h1.2c1 0 1.7.1 2.2.4.5.4.8 1 .8 1.8zm-16 7.9h3.2v-5.8h-1.5L349.4 97h-3.8l-4.7 12.7h-1.4v5.8h3.2v-3h9.7v3.1zm-1.7-5.9h-6.3l3.2-9 3.1 9zm-19.8 2.8h3.4V97h-3.4v6.2h-6.4V97h-3.4v15.5h3.4V106h6.4v6.5zm-18.3-2a7.67 7.67 0 0 0 0-11.5 8.77 8.77 0 0 0-6.3-2.3c-2.5 0-4.6.8-6.3 2.3a7.28 7.28 0 0 0-2.6 5.7c0 2.2.9 4.2 2.6 5.7 1.7 1.6 3.9 2.4 6.3 2.4s4.6-.8 6.3-2.3zm-.9-5.8c0 1.5-.5 2.7-1.5 3.7a5.2 5.2 0 0 1-4 1.6c-1.5 0-2.8-.5-3.9-1.6-1.1-1-1.6-2.3-1.6-3.7 0-1.4.5-2.6 1.6-3.6s2.3-1.5 3.9-1.5c1.5 0 2.8.5 3.9 1.5a5 5 0 0 1 1.6 3.6zm-20.1.1c.6-.8.9-1.9.9-3 0-1.2-.3-2.1-1-2.9a5.5 5.5 0 0 0-2.9-1.6c-.7-.2-1.6-.2-2.6-.2h-5.2v15.5h3.4V107h2.3c.9 0 1.6-.2 2.3-.3a7.3 7.3 0 0 0 2.8-1.9zm-2.5-2.8c0 1.5-1.1 2.2-3.2 2.2h-1.8v-4.4h1.9c2.1 0 3.1.7 3.1 2.2zm-16.8 8.5a7.67 7.67 0 0 0 0-11.5 8.77 8.77 0 0 0-6.3-2.3c-2.5 0-4.6.8-6.3 2.3a7.28 7.28 0 0 0-2.6 5.7c0 2.2.9 4.2 2.6 5.7 1.7 1.6 3.9 2.4 6.3 2.4s4.5-.8 6.3-2.3zm-.9-5.8c0 1.5-.5 2.7-1.5 3.7-1 1.1-2.4 1.6-3.9 1.6s-2.8-.5-3.9-1.6c-1.1-1-1.6-2.3-1.6-3.7 0-1.4.5-2.6 1.6-3.6s2.3-1.5 3.9-1.5c1.5 0 2.8.5 3.9 1.5.9 1 1.5 2.2 1.5 3.6zm-22.2 5.8a7.67 7.67 0 0 0 0-11.5 8.77 8.77 0 0 0-6.3-2.3c-2.5 0-4.6.8-6.3 2.3a7.28 7.28 0 0 0-2.6 5.7c0 2.2.9 4.2 2.6 5.7 1.7 1.6 3.9 2.4 6.3 2.4s4.6-.8 6.3-2.3zm-.9-5.8c0 1.5-.5 2.7-1.5 3.7-1 1.1-2.4 1.6-3.9 1.6s-2.8-.5-3.9-1.6c-1.1-1-1.6-2.3-1.6-3.7 0-1.4.5-2.6 1.6-3.6s2.3-1.5 3.9-1.5c1.5 0 2.8.5 3.9 1.5 1 1 1.5 2.2 1.5 3.6zm-17.7 7.8l-5.8-8 5.4-7.5h-4l-3.4 5.2-3.5-5.2h-3.9l5.5 7.5-5.9 8.1h3.9l3.9-5.8 4 5.8h3.8v-.1zm-43.3-4.2c-1-1-1.5-2.3-1.5-3.7 0-1.4.5-2.6 1.5-3.6s2.3-1.5 3.9-1.5c1.9 0 3.4.8 4.5 2.4h3.8c-.6-1.7-1.6-2.9-3.1-3.9-1.5-.9-3.2-1.4-5.1-1.4-2.5 0-4.6.8-6.3 2.3a7.32 7.32 0 0 0-2.6 5.7c0 2.3.9 4.2 2.6 5.8 1.7 1.6 3.9 2.3 6.4 2.3 1.9 0 3.5-.5 5-1.4 1.4-.9 2.5-2.2 3.2-3.8h-3.8c-1 1.5-2.4 2.3-4.4 2.3-1.8.1-3.1-.4-4.1-1.5zm-12.9 4.2h3.6L172.1 97h-3.8l-5.8 15.5h3.6l4.1-11.7 4.2 11.7zm-22.5 0l7.2-15.5h-3.6l-3.8 8.3-4-8.3h-3.6l6 11.9-1.7 3.6h3.5zm491.7-31.8v-64c0-3.3-2.7-5.9-5.9-5.9h-13.1v29.4h-32V16.7c0-3.3-2.7-5.9-5.9-5.9h-13.1v64.1c0 3.3 2.7 5.9 5.9 5.9h13.1V51.4h32v23.5c0 3.3 2.7 5.9 5.9 5.9h13.1v-.1zm-94.6 0h13.1v-64c0-3.3-2.7-5.9-5.9-5.9h-11.3l-33.7 46.3V16.7c0-3.3-2.7-5.9-5.9-5.9h-13.1v64.1c0 3.3 2.7 5.9 5.9 5.9H513l30.2-41.4v35.5c-.1 3.2 2.5 5.8 5.8 5.8zm-164.4 0h96.1v-64c0-3.3-2.7-5.9-5.9-5.9h-13.1v58.9h-22.5v-53c0-3.3-2.7-5.9-5.9-5.9h-13.1v58.9h-22.5v-53c0-3.3-2.7-5.9-5.9-5.9h-13.1v64.1c-.1 3.2 2.6 5.8 5.9 5.8zm-35.9-12.6l27.9-57.3h-15.3a5.9 5.9 0 0 0-5.3 3.3l-17.1 35.2-20.6-35.6c-1.1-1.8-3-3-5.1-3h-15.6l32.3 55.7c-2.5 2.5-5.9 4.1-9.7 4.1h-2.3c-3.3 0-5.9 2.7-5.9 5.9v5.2h15c9.4.1 17.7-5.5 21.7-13.5zm-79.1 0l27.9-57.3h-15.3a5.9 5.9 0 0 0-5.3 3.3l-17.1 35.2-20.6-35.6c-1.1-1.8-3-3-5.1-3h-15.6l32.3 55.7c-2.5 2.5-5.9 4.1-9.7 4.1h-2.3c-3.3 0-5.9 2.7-5.9 5.9v5.2h15c9.4.1 17.7-5.5 21.7-13.5zm-55.5-52.2v-5.2H150c-3.3 0-5.9 2.7-5.9 5.9v5.2h25.8v58.9h19V21.8h19.2c3.3 0 6-2.6 6-5.9z"/>
</svg>
